<svg width="83" height="32" viewBox="0 0 83 32" fill="none" xmlns="http://www.w3.org/2000/svg">
  <path d="M31.9834 12.792C28.8804 12.792 27.456 14.1019 27.456 17.0961V17.5563C27.456 20.3975 28.6944 21.7758 31.6103 21.7758C32.5437 21.7758 33.476 21.6054 34.138 21.0779V21.4187C34.138 23.0173 33.4425 23.5447 31.8147 23.5447H30.8413C30.2832 23.5556 30.0301 23.6533 29.6937 24.2067C28.3157 26.3998 26.4059 28.2062 24.1428 29.4572C21.8797 30.7082 19.3375 31.3627 16.7537 31.3597C8.31738 31.3597 1.4461 24.4694 1.4461 16C1.4461 7.53063 8.31306 0.640306 16.7537 0.640306C19.6555 0.6426 22.4971 1.47147 24.9479 3.03052C27.3986 4.58957 29.358 6.81472 30.5979 9.4472H31.301C30.04 6.6341 27.9964 4.24617 25.4156 2.5703C22.8348 0.894437 19.8267 0.00192441 16.7526 0C7.96046 0 0.806885 7.17792 0.806885 16C0.806885 24.8221 7.96046 32 16.7526 32C19.2745 32.0024 21.7608 31.4034 24.0066 30.2524C26.2525 29.1014 28.1936 27.4314 29.6699 25.3799H31.951C34.9524 25.3799 36.4936 24.2393 36.4936 21.3297V16.9431C36.4947 14.0509 35.0194 12.792 31.9834 12.792ZM34.1542 17.8439C34.1542 19.4435 33.595 19.9373 31.9834 19.9373C30.1696 19.9373 29.8138 19.3079 29.8138 17.4532V17.1634C29.8138 15.326 30.1383 14.6673 31.9834 14.6673C33.7983 14.6673 34.1542 15.3185 34.1542 17.1862V17.8439ZM10.0923 9.57634V17.9328C10.0923 21.0291 11.5167 22.3227 14.6198 22.3227C17.8418 22.3227 19.2706 21.0627 19.2706 17.9491V17.1493C19.2706 14.2191 17.9478 12.7941 15.0643 12.7941C14.1493 12.7941 13.1488 12.9808 12.4685 13.5082V9.20192L10.0923 9.57634ZM14.7041 14.663C16.3319 14.663 16.9084 15.3141 16.9084 17.2329V17.9524C16.9084 19.8245 16.3319 20.4713 14.6706 20.4713C13.0093 20.4713 12.4317 19.8201 12.4317 17.9361V16.9659C12.4317 15.2392 13.0082 14.663 14.7041 14.663ZM26.2857 14.9885L26.6761 13.0828H23.3232V10.4782L20.9654 10.8352V18.6111C20.9654 21.2993 22.0178 22.0992 24.8829 22.0992H26.1375L26.528 20.2108H25.0484C23.7429 20.2108 23.3178 19.8852 23.3178 18.4581V14.9853L26.2857 14.9885Z" fill="white"/>
  <path d="M43.0393 13.4637C40.7248 13.4637 39.6432 14.613 39.6432 17.0842V23.7987H40.3754V20.3475C40.9043 21.0378 41.8896 21.4426 43.0794 21.4426C45.3874 21.4426 46.4171 20.3258 46.4171 17.8243V17.0646C46.4182 14.5729 45.3755 13.4637 43.0393 13.4637ZM45.6654 17.8243C45.6654 19.9416 44.9656 20.7285 43.0804 20.7285C41.2958 20.7285 40.3905 19.8602 40.3905 18.1336V17.0842C40.3905 15.0222 41.1585 14.18 43.0393 14.18C44.9202 14.18 45.6654 14.9885 45.6654 17.0635V17.8243ZM77.2065 13.5918H75.2272L75.0628 14.3048H77.2108C79.1749 14.3048 79.838 14.829 79.838 16.3842V17.1352C79.3502 16.6468 78.4892 16.3983 77.2724 16.3983C75.3256 16.3983 74.3868 17.2241 74.3868 18.9226V19.0376C74.3868 20.6297 75.3159 21.4382 77.1491 21.4382H77.6423C79.5892 21.4382 80.5691 20.6297 80.5691 19.0376V16.3798C80.5648 14.396 79.5914 13.5874 77.2065 13.5874V13.5918ZM79.8336 19.1461C79.8336 20.2857 79.2117 20.7295 77.6175 20.7295H77.3092C75.7701 20.7295 75.1136 20.2249 75.1136 19.043V18.9182C75.1136 17.6344 75.7399 17.0874 77.2065 17.0874H77.3298C79.0841 17.0874 79.8336 17.6159 79.8336 18.8564V19.1461ZM82.0757 10.6366V21.4436H82.8069V10.6355L82.0757 10.6366ZM65.5925 14.3015L65.7558 13.5885H62.484V11.5493L61.7269 11.6839V18.673C61.7269 20.6633 62.4699 21.4035 64.4687 21.4035H65.5503L65.6876 20.6894H64.4698C62.9631 20.6894 62.4807 20.2097 62.4807 18.7142V14.3005L65.5925 14.3015ZM72.3664 18.3409C72.3664 20.1804 71.7932 20.7708 70.0064 20.7708C68.2759 20.7708 67.6875 20.1576 67.6875 18.3409V13.5874H66.9304V18.3398C66.9304 20.6026 67.7956 21.4871 70.001 21.4871C72.2063 21.4871 73.0921 20.5765 73.0921 18.3398V13.5874H72.361L72.3664 18.3409ZM50.4027 13.5885H48.4202L48.2558 14.3015H50.4027C52.3496 14.3015 53.0093 14.8257 53.0093 16.3809V17.1319C52.5226 16.6435 51.6617 16.395 50.4438 16.395C48.5024 16.395 47.5582 17.2209 47.5582 18.9193V19.0376C47.5582 20.6297 48.4948 21.4382 50.3411 21.4382H50.8354C52.7638 21.4382 53.7416 20.6297 53.7416 19.0376V16.3798C53.7416 14.396 52.7746 13.5874 50.4027 13.5874V13.5885ZM53.0093 19.1461C53.0093 20.3009 52.4145 20.7295 50.8148 20.7295H50.5055C48.9523 20.7295 48.2904 20.2249 48.2904 19.043V18.9182C48.2904 17.6344 48.9156 17.0874 50.3822 17.0874H50.5055C52.2609 17.0874 53.0093 17.6159 53.0093 18.8564V19.1461ZM55.8214 17.8254V17.1645C55.8214 15.0504 56.5418 14.3015 58.573 14.3015H60.2884L60.4517 13.5885H58.5708C56.1481 13.5885 55.0676 14.6911 55.0676 17.1699V17.8308C55.0676 20.3041 56.1492 21.4122 58.5708 21.4122H60.3014L60.4658 20.6981H58.5708C56.5894 20.6872 55.8182 19.8852 55.8182 17.8243L55.8214 17.8254Z" fill="white"/>
</svg>
